<svg viewBox="0 0 32 32" fill="none" xmlns="http://www.w3.org/2000/svg">
  <path fill="#7b39fc" d="M1.04356 6.35771L13.6437 0.666504C14.7432 0.169128 15.9387 0.169123 17.0382 0.666497L29.6384 6.3577C31.5714 7.23078 32.5195 9.48911 31.867 11.5367L28.123 23.2952C27.5097 25.2212 25.751 26.541 23.6309 26.5165L20.4578 26.4799L18.4719 28.5284C17.1687 29.8726 15.0065 29.9888 13.5358 28.8105C12.3551 27.8647 11.7511 26.3195 12.0229 24.8143L13.8041 14.949C13.9878 13.9317 14.9082 13.2081 15.9427 13.2383L19.4975 13.3421C19.8665 13.353 20.0639 13.7844 19.8272 14.061L18.6668 15.4172C18.3377 15.8016 17.8466 16.0232 17.3402 16.0386C16.852 16.0534 16.4475 16.3934 16.3725 16.8528L15.3957 22.8407C15.352 23.108 15.4419 23.3768 15.6318 23.5516C15.8504 23.7527 16.1627 23.7788 16.4087 23.6186L20.2443 21.1192C20.6685 20.8428 21.2064 20.8123 21.6591 21.0384L22.9575 21.6871C23.6273 22.0216 24.0882 22.6568 24.1687 23.3854L24.3204 24.757C24.3683 25.1916 24.8213 25.4384 25.228 25.2536L28.3653 23.8291C28.7997 23.6318 29.0883 23.2119 29.1352 22.759L29.9077 15.3093C29.9571 14.8329 29.6586 14.3986 29.2023 14.2494L18.4619 10.7424C16.3769 10.0617 14.0924 10.5186 12.3813 11.9567C10.6601 13.4042 9.68233 15.626 9.87189 17.8932L10.3201 23.2554C10.3644 23.7865 9.94421 24.2255 9.42398 24.2384L5.68962 24.3312C3.51352 24.3853 1.63677 22.9378 1.15785 20.8354L0.26786 16.9272C-0.370597 14.1256 0.165997 11.1683 1.95779 8.84666L4.35411 5.74102C4.54228 5.49712 4.49842 5.15875 4.25327 4.96023L3.08059 4.01027C2.92341 3.88293 2.68656 3.87445 2.518 3.99026C1.98394 4.35706 1.48866 4.79367 1.04356 6.35771Z" />
</svg>
